<svg xmlns="http://www.w3.org/2000/svg" viewBox="0 0 558.01 135.66">
  <defs>
    <style>
      .cls-1, .cls-2 {
        stroke-width: 0px;
      }

      .cls-2 {
        fill: #6d8ab3;
      }
    </style>
  </defs>
  <path class="cls-2" d="M1.07,124.57L61.99,24.26l-10.66-16.78c-1.42-2.25-.79-5.21,1.41-6.7,2.16-1.44,5.07-.85,6.51,1.3l.08.12,8.48,13.36,8.47-13.36c1.37-2.19,4.26-2.87,6.46-1.51l.12.08c2.21,1.47,2.85,4.45,1.43,6.7l-10.67,16.78,60.94,100.31c1.37,2.23,1.44,5.03.18,7.33-1.23,2.28-3.61,3.71-6.21,3.72h-27c-2.45-.02-4.72-1.29-6.02-3.36l-22.86-36.41c-1.67-2.66-5.19-3.46-7.85-1.78-.72.45-1.33,1.06-1.78,1.78l-22.89,36.41c-1.28,2.09-3.54,3.38-6,3.4H7.12c-2.61,0-5.01-1.45-6.23-3.76-1.25-2.3-1.17-5.1.21-7.33h-.03Z"/>
  <g>
    <path class="cls-1" d="M197.93,134.82c-14.49,0-25.53-4.72-33.11-14.16-7.59-9.44-11.38-22.84-11.38-40.21,0-8.63,1.16-16.34,3.47-23.12,2.31-6.78,5.49-12.5,9.52-17.17,4.03-4.67,8.83-8.21,14.4-10.62,5.57-2.41,11.62-3.61,18.13-3.61,3.77,0,7.2.33,10.29.98,3.09.65,5.79,1.41,8.1,2.26,2.31.85,4.24,1.73,5.79,2.64,1.54.9,2.66,1.61,3.34,2.11l-5.79,18.98c-2.75-1.71-5.94-3.16-9.58-4.37-3.65-1.21-7.78-1.81-12.41-1.81-3.09,0-6.11.6-9.07,1.81-2.96,1.21-5.57,3.14-7.84,5.8-2.27,2.66-4.1,6.1-5.47,10.32-1.37,4.22-2.06,9.34-2.06,15.36,0,4.82.45,9.31,1.35,13.48.9,4.17,2.36,7.76,4.37,10.77,2.01,3.01,4.65,5.4,7.91,7.15,3.26,1.76,7.2,2.64,11.83,2.64,2.91,0,5.53-.2,7.84-.6,2.31-.4,4.37-.88,6.17-1.43,1.8-.55,3.39-1.18,4.76-1.88,1.37-.7,2.61-1.36,3.73-1.96l5.53,18.83c-2.83,2.01-6.82,3.82-11.96,5.42-5.14,1.6-11.1,2.41-17.88,2.41Z"/>
    <path class="cls-1" d="M264.93,51.38c5.66,0,10.37.75,14.15,2.26,3.77,1.51,6.79,3.67,9.07,6.48,2.27,2.81,3.88,6.23,4.82,10.24.94,4.02,1.42,8.49,1.42,13.4v46.69c-2.75.7-6.56,1.53-11.45,2.48s-10.8,1.43-17.75,1.43c-4.37,0-8.34-.45-11.9-1.36-3.56-.9-6.62-2.38-9.19-4.44-2.57-2.06-4.55-4.74-5.92-8.06-1.37-3.31-2.06-7.38-2.06-12.2s.79-8.53,2.38-11.75c1.59-3.21,3.71-5.77,6.37-7.68,2.66-1.91,5.7-3.29,9.13-4.14,3.43-.85,6.99-1.28,10.67-1.28,2.49,0,4.69.13,6.62.38,1.93.25,3.49.58,4.69.98v-2.11c0-3.81-.99-6.88-2.96-9.19-1.97-2.31-5.4-3.46-10.29-3.46-3.26,0-6.47.28-9.65.83-3.17.55-5.92,1.33-8.23,2.33l-2.44-18.07c1.11-.4,2.51-.83,4.18-1.28,1.67-.45,3.49-.85,5.47-1.2,1.97-.35,4.05-.65,6.24-.9,2.19-.25,4.39-.38,6.62-.38ZM266.47,117.05c1.88,0,3.68-.05,5.4-.15,1.71-.1,3.09-.25,4.12-.45v-17.02c-.77-.2-1.93-.4-3.47-.6-1.54-.2-2.96-.3-4.24-.3-1.8,0-3.49.13-5.08.38-1.59.25-2.98.73-4.18,1.43-1.2.7-2.14,1.66-2.83,2.86-.69,1.21-1.03,2.71-1.03,4.52,0,3.52,1.01,5.95,3.02,7.3,2.01,1.36,4.78,2.03,8.29,2.03Z"/>
    <path class="cls-1" d="M348.91,90.69c0-7.23-.79-12.35-2.38-15.36-1.59-3.01-4.31-4.52-8.17-4.52-1.2,0-2.44.08-3.73.23-1.29.15-2.53.33-3.73.53v61.15h-19.16V56.2c1.63-.5,3.54-1.03,5.72-1.58,2.19-.55,4.5-1.05,6.94-1.51s4.95-.8,7.52-1.05c2.57-.25,5.1-.38,7.59-.38,4.89,0,8.85.73,11.9,2.18,3.04,1.46,5.55,3.19,7.52,5.2,2.74-2.31,5.89-4.12,9.45-5.42,3.56-1.3,6.83-1.96,9.84-1.96,5.4,0,9.84.88,13.31,2.64,3.47,1.76,6.24,4.24,8.29,7.46,2.06,3.21,3.47,7.03,4.24,11.45.77,4.42,1.16,9.34,1.16,14.76v44.73h-19.16v-42.02c0-7.23-.79-12.35-2.38-15.36-1.59-3.01-4.31-4.52-8.17-4.52-1.03,0-2.47.3-4.31.9-1.84.6-3.37,1.35-4.57,2.26.6,2.31.98,4.74,1.16,7.3.17,2.56.26,5.3.26,8.21v43.23h-19.16v-42.02Z"/>
    <path class="cls-1" d="M485.48,82.61c0,4.57-.64,8.74-1.93,12.48-1.29,3.75-3.17,6.97-5.66,9.67-2.49,2.7-5.57,4.8-9.26,6.3-3.69,1.5-7.93,2.25-12.73,2.25-2.66,0-5.14-.22-7.46-.67-2.32-.45-4.54-1.09-6.69-1.91v22.27h-19.16V55.06c1.71-.45,3.69-.88,5.92-1.29,2.23-.41,4.56-.77,7.01-1.07,2.44-.3,4.93-.54,7.46-.73,2.53-.19,4.95-.28,7.27-.28,5.57,0,10.55.73,14.92,2.19s8.06,3.53,11.06,6.19c3,2.66,5.29,5.9,6.88,9.73,1.59,3.82,2.38,8.1,2.38,12.82ZM465.93,83.06c0-5.17-1.33-9.32-3.99-12.43-2.66-3.11-6.6-4.67-11.83-4.67-1.72,0-3.3.06-4.76.17-1.46.11-2.66.24-3.6.39v30.25c1.2.67,2.76,1.24,4.69,1.69,1.93.45,3.88.68,5.85.68,9.09,0,13.63-5.36,13.63-16.08Z"/>
    <path class="cls-1" d="M558.01,130c-3.26,1.11-7.46,2.13-12.6,3.09-5.14.95-10.55,1.43-16.2,1.43s-10.52-.9-14.34-2.71c-3.82-1.81-6.84-4.34-9.07-7.61-2.23-3.26-3.82-7.15-4.76-11.67-.94-4.52-1.41-9.49-1.41-14.91v-44.13h19.16v41.42c0,7.23.81,12.45,2.44,15.66,1.63,3.21,4.67,4.82,9.13,4.82,1.37,0,2.83-.08,4.37-.23,1.54-.15,2.91-.32,4.12-.53v-61.15h19.16v76.51Z"/>
  </g>
</svg>