<svg viewBox="0 0 1024 1024" xmlns="http://www.w3.org/2000/svg"><path d="M1004.6 381.6c7.8-6.2 19.4-0.4 19.4 9.4V800c0 53-43 96-96 96H96c-53 0-96-43-96-96V391.2c0-10 11.4-15.6 19.4-9.4 44.8 34.8 104.2 79 308.2 227.2 42.2 30.8 113.4 95.6 184.4 95.2 71.4 0.6 144-65.6 184.6-95.2 204-148.2 263.2-192.6 308-227.4zM512 640c46.4 0.8 113.2-58.4 146.8-82.8 265.4-192.6 285.6-209.4 346.8-257.4 11.6-9 18.4-23 18.4-37.8v-38c0-53-43-96-96-96H96C43 128 0 171 0 224v38c0 14.8 6.8 28.6 18.4 37.8 61.2 47.8 81.4 64.8 346.8 257.4 33.6 24.4 100.4 83.6 146.8 82.8z" fill="#F3BE32"></path></svg>