<svg viewBox="0 0 1024 1024" xmlns="http://www.w3.org/2000/svg"><path d="M1024 0C920.44 7.12 192.88 76.4 142.02 575.22c-6.18 53.32-9.68 106.88-11.98 160.48l357.74-357.38c12.5-12.5 32.8-12.5 45.3 0s12.5 32.76 0 45.26L14.08 942.06c-18.76 18.74-18.76 49.14 0 67.88 18.76 18.74 49.18 18.74 67.96 0l114.26-114.14c84.18-0.28 168.3-5.06 251.92-14.72 106.96-10.88 194.04-52.94 265.16-113.08H511.48l293.58-97.76c22.5-29.78 42.74-61.42 60.9-94.24h-162.28l213.08-106.42C1000.58 265.72 1020.38 52.52 1024 0z" fill="currentColor"></path></svg>