<svg viewBox="0 0 1152 1024" xmlns="http://www.w3.org/2000/svg"><path d="M560.77004 296.52L192.03004 600.22V928a32 32 0 0 0 32 32l224.12-0.58a32 32 0 0 0 31.84-32V736a32 32 0 0 1 32-32h128a32 32 0 0 1 32 32v191.28a32 32 0 0 0 32 32.1L928.03004 960a32 32 0 0 0 32-32V600L591.37004 296.52a24.38 24.38 0 0 0-30.6 0zM1143.23004 502.94L976.03004 365.12V88.1a24 24 0 0 0-24-24h-112a24 24 0 0 0-24 24v145.22L636.97004 86a96 96 0 0 0-122 0L8.71004 502.94a24 24 0 0 0-3.2 33.8l51 62A24 24 0 0 0 90.33004 602l470.44-387.48a24.38 24.38 0 0 1 30.6 0L1061.83004 602a24 24 0 0 0 33.8-3.2l51-62a24 24 0 0 0-3.4-33.86z" fill="currentColor"></path></svg>