<svg viewBox="0 0 1024 1024" xmlns="http://www.w3.org/2000/svg"><path d="M406.427 271.934h504.278c26.871 0 48.855-21.606 48.855-48.016 0-26.407-21.984-48.013-48.855-48.013H406.427c-26.871 0-48.855 21.606-48.855 48.013 0 26.411 21.984 48.016 48.855 48.016zM145.866 143.899c-44.787 0-81.427 36.007-81.427 80.019 0 44.015 36.64 80.025 81.427 80.025 44.78 0 81.424-36.01 81.424-80.025 0-44.012-36.643-80.019-81.424-80.019z m764.84 320.088H406.427c-26.871 0-48.855 21.606-48.855 48.013 0 26.404 21.984 48.013 48.855 48.013h504.278c26.871 0 48.855-21.609 48.855-48.013 0.001-26.407-21.983-48.013-48.854-48.013z m-764.84-32.012c-44.787 0-81.427 36.013-81.427 80.025s36.64 80.019 81.427 80.019c44.78 0 81.424-36.007 81.424-80.019s-36.643-80.025-81.424-80.025z m764.84 320.087H406.427c-26.871 0-48.855 21.609-48.855 48.013 0 26.41 21.984 48.013 48.855 48.013h504.278c26.871 0 48.855-21.603 48.855-48.013 0.001-26.404-21.983-48.013-48.854-48.013z m-764.84-32.005c-44.787 0-81.427 36.007-81.427 80.019s36.64 80.025 81.427 80.025c44.78 0 81.424-36.013 81.424-80.025s-36.643-80.019-81.424-80.019z" fill="currentColor"></path></svg>