<svg viewBox="0 0 1024 1024" xmlns="http://www.w3.org/2000/svg"><path d="M817.493333 917.333333v0.426667A214.741333 214.741333 0 0 1 725.333333 938.666667H298.666667a213.418667 213.418667 0 0 1-213.333334-213.333334v-73.813333a8.96 8.96 0 0 0 2.56-1.706667 423.936 423.936 0 0 1 275.2-109.653333h0.853334c197.12 0 383.573333 155.306667 453.546666 377.173333z"></path><path d="M725.333333 85.333333H298.666667a213.418667 213.418667 0 0 0-213.333334 213.333334v270.933333a472.405333 472.405333 0 0 1 277.76-94.72h0.853334c7.68 0 15.786667 0 23.466666 0.426667a481.28 481.28 0 0 1 231.253334 75.946666 627.882667 627.882667 0 0 1 254.293333 327.253334A210.602667 210.602667 0 0 0 938.666667 725.333333V298.666667a213.418667 213.418667 0 0 0-213.333334-213.333334z m-29.44 296.533334a64 64 0 1 1 64-64 63.914667 63.914667 0 0 1-64 64z" fill="currentColor"></path></svg>