<svg viewBox="0 0 1024 1024" xmlns="http://www.w3.org/2000/svg"><path d="M510.872 0.00004A511.738935 511.738935 0 0 0 0.578065 470.68598l274.473965 113.377986a144.332982 144.332982 0 0 1 89.621989-24.903997L486.810003 382.552991v-2.615999a193.084975 193.084975 0 1 1 193.049976 193.095975h-4.48L501.388001 697.214951c0 2.275 0.193 4.549999 0.193 6.823a144.799982 144.799982 0 0 1-286.766963 28.543996L18.227063 651.159957A511.965935 511.965935 0 1 0 510.792 0.00004h0.069zM321.404024 776.591941L258.540032 750.549945a108.772986 108.772986 0 1 0 59.599993-148.745981l64.967991 26.837996a80.09299 80.09299 0 1 1-61.646992 147.835981v0.114z m487.139938-396.767949A128.661984 128.661984 0 1 0 679.882979 508.439975a128.843984 128.843984 0 0 0 128.662983-128.616983z m-225.061971-0.228a96.661988 96.661988 0 1 1 96.661988 96.661988 96.433988 96.433988 0 0 1-96.661988-96.661988z" fill="#004986"></path></svg>